<?xml version="1.0" encoding="utf-8" ?>
<svg baseProfile="full" height="160" style="background-color:black" version="1.1" width="750" xmlns="http://www.w3.org/2000/svg" xmlns:ev="http://www.w3.org/2001/xml-events" xmlns:xlink="http://www.w3.org/1999/xlink"><defs /><path d="M 378.66871003061533 68.24989080429077 L 378.19501265883446 66.68267026543617 M 378.19501265883446 66.68267026543617 L 377.57036063820124 65.80403499305248 M 377.57036063820124 65.80403499305248 L 377.1970096975565 66.89977549016476 M 377.1970096975565 66.89977549016476 L 376.14294581115246 70.74790440499783 M 376.14294581115246 70.74790440499783 L 375.0 77.56018780171871 M 375.0 77.56018780171871 L 376.96261182427406 83.1004460901022 M 376.96261182427406 83.1004460901022 L 381.75210133194923 86.42732910811901 M 381.75210133194923 86.42732910811901 L 387.78674498200417 86.79666317999363 M 387.78674498200417 86.79666317999363 L 392.8125347197056 84.30968604981899 M 392.8125347197056 84.30968604981899 L 395.35377845168114 79.06327091157436 M 395.35377845168114 79.06327091157436 L 395.93320835381746 72.95256577432156 M 395.93320835381746 72.95256577432156 L 395.6441548280418 69.11639921367168 M 395.6441548280418 69.11639921367168 L 395.2125256322324 69.00801530107856 M 395.2125256322324 69.00801530107856 L 395.49974638968706 71.84759935364127 M 395.49974638968706 71.84759935364127 L 397.5761069729924 77.79801925644279 M 397.5761069729924 77.79801925644279 L 400.49317706376314 85.29334744438529 M 400.49317706376314 85.29334744438529 L 402.6239137724042 93.01065048202872 M 402.6239137724042 93.01065048202872 L 402.8110667131841 99.9136652611196 M 402.8110667131841 99.9136652611196 L 399.89822467789054 105.04636010155082 M 399.89822467789054 105.04636010155082 L 394.0179236792028 107.7475037239492 M 394.0179236792028 107.7475037239492 L 386.8866225145757 108.0504635348916 M 386.8866225145757 108.0504635348916 L 380.45825680717826 106.2887516990304 M 380.45825680717826 106.2887516990304 L 376.4540665410459 103.2311138883233 M 376.4540665410459 103.2311138883233" stroke="white" stroke-width="1" /></svg>