<?xml version="1.0" encoding="utf-8" ?>
<svg baseProfile="full" height="160" style="background-color: black;" version="1.1" width="750" xmlns="http://www.w3.org/2000/svg" xmlns:ev="http://www.w3.org/2001/xml-events" xmlns:xlink="http://www.w3.org/1999/xlink"><defs /><path d="M 50.71713477373123 60.46972990036011 L 50.0 61.750463992357254 M 50.0 61.750463992357254 L 50.385099947452545 63.38148608803749 M 50.385099947452545 63.38148608803749 L 51.568943709135056 67.06904873251915 M 51.568943709135056 67.06904873251915 L 54.77456405758858 73.98504540324211 M 54.77456405758858 73.98504540324211 L 58.76655474305153 80.33875450491905 M 58.76655474305153 80.33875450491905 L 60.89278623461723 86.84201166033745 M 60.89278623461723 86.84201166033745 L 61.54625900089741 91.05775073170662 M 61.54625900089741 91.05775073170662 L 61.58906478434801 93.50919589400291 M 61.58906478434801 93.50919589400291 L 61.59147541664424 94.22853104770184 M 61.59147541664424 94.22853104770184 L 61.58458929960034 92.1212724596262 M 61.58458929960034 92.1212724596262 L 61.96360305402777 88.02774377167225 M 61.96360305402777 88.02774377167225 L 63.38958621476195 83.40376533567905 M 63.38958621476195 83.40376533567905 L 66.83946073506377 79.63349498808384 M 66.83946073506377 79.63349498808384 L 71.42581820939085 78.36641885340214 M 71.42581820939085 78.36641885340214 L 75.77347428057692 80.14654360711575 M 75.77347428057692 80.14654360711575 L 78.62918258164427 84.3631549924612 M 78.62918258164427 84.3631549924612 L 80.22672847364447 89.1417395323515 M 80.22672847364447 89.1417395323515 L 81.3897032335808 93.34034107625484 M 81.3897032335808 93.34034107625484 L 82.39743307683966 95.8426883071661 M 82.39743307683966 95.8426883071661 L 82.93841641847393 96.49777203798294 M 82.93841641847393 96.49777203798294 L 83.27378530506394 96.70651802793145 M 83.27378530506394 96.70651802793145" stroke="white" stroke-width="1" /><path d="M 91.23027522568009 85.78172454610467 L 91.23038983794686 86.46014602854848 M 91.23038983794686 86.46014602854848 L 91.25529010205355 85.62593216076493 M 91.25529010205355 85.62593216076493 L 94.7795592656621 84.18651262298226 M 94.7795592656621 84.18651262298226 L 100.92701781897631 81.8499899841845 M 100.92701781897631 81.8499899841845 L 107.2048305383214 78.84820142760873 M 107.2048305383214 78.84820142760873 L 110.17039794831362 75.30677298083901 M 110.17039794831362 75.30677298083901 L 109.21377916245547 72.48109677806497 M 109.21377916245547 72.48109677806497 L 103.86496384053316 71.25782625749707 M 103.86496384053316 71.25782625749707 L 96.16255957989779 73.61900584772229 M 96.16255957989779 73.61900584772229 L 91.13699932007876 78.9479841478169 M 91.13699932007876 78.9479841478169 L 89.40691892414179 85.51079170778394 M 89.40691892414179 85.51079170778394 L 92.47269545106974 92.17565255239606 M 92.47269545106974 92.17565255239606 L 99.38232574968424 96.19159298017621 M 99.38232574968424 96.19159298017621 L 106.36701856165018 96.9111449457705 M 106.36701856165018 96.9111449457705 L 111.97867427377787 94.79672709479928 M 111.97867427377787 94.79672709479928 L 115.54928843288508 89.25766387954354 M 115.54928843288508 89.25766387954354" stroke="white" stroke-width="1" /><path d="M 120.69269542007532 71.23970905318856 L 119.58919998614874 65.7898441888392 M 119.58919998614874 65.7898441888392 L 118.9171113482007 63.50324908271432 M 118.9171113482007 63.50324908271432 L 118.91137687322043 63.36153848096728 M 118.91137687322043 63.36153848096728 L 119.62103476580523 65.98215056583285 M 119.62103476580523 65.98215056583285 L 121.1440486257925 72.3549116961658 M 121.1440486257925 72.3549116961658 L 122.77161633428477 81.43164111301303 M 122.77161633428477 81.43164111301303 L 125.43665235694789 89.8354340903461 M 125.43665235694789 89.8354340903461 L 127.86129420455836 95.16046358272433 M 127.86129420455836 95.16046358272433 L 128.24219172653102 97.77374697849154 M 128.24219172653102 97.77374697849154 L 128.2183296263247 98.703184556216 M 128.2183296263247 98.703184556216" stroke="white" stroke-width="1" /><path d="M 138.51404972672754 71.53794331476092 L 137.41055429280095 66.08807845041156 M 137.41055429280095 66.08807845041156 L 136.73846565485292 63.80148334428668 M 136.73846565485292 63.80148334428668 L 136.73273117987264 63.659772742539644 M 136.73273117987264 63.659772742539644 L 137.44238907245744 66.28038482740521 M 137.44238907245744 66.28038482740521 L 138.9654029324447 72.65314595773816 M 138.9654029324447 72.65314595773816 L 140.59297064093698 81.72987537458539 M 140.59297064093698 81.72987537458539 L 143.2580066636001 90.13366835191846 M 143.2580066636001 90.13366835191846 L 145.68264851121057 95.4586978442967 M 145.68264851121057 95.4586978442967 L 146.06354603318323 98.0719812400639 M 146.06354603318323 98.0719812400639 L 146.0396839329769 99.00141881778836 M 146.0396839329769 99.00141881778836" stroke="white" stroke-width="1" /><path d="M 160.653096551614 79.67588590458035 L 158.96460172029037 80.4755556769669 M 158.96460172029037 80.4755556769669 L 156.7530175694992 81.47252464666963 M 156.7530175694992 81.47252464666963 L 155.5063338229229 84.8677452839911 M 155.5063338229229 84.8677452839911 L 157.209994907098 88.4093495644629 M 157.209994907098 88.4093495644629 L 161.93069141598244 91.55864650383592 M 161.93069141598244 91.55864650383592 L 168.09452276917 91.83820854872465 M 168.09452276917 91.83820854872465 L 174.01620667667885 89.82270117849112 M 174.01620667667885 89.82270117849112 L 177.7465574094822 84.14513643831015 M 177.7465574094822 84.14513643831015 L 176.81463781984348 79.02738269418478 M 176.81463781984348 79.02738269418478 L 172.2310388484766 74.01311751455069 M 172.2310388484766 74.01311751455069 L 167.39564214141865 70.78945066779852 M 167.39564214141865 70.78945066779852 L 163.49835787208576 70.1402635499835 M 163.49835787208576 70.1402635499835 L 161.91029299290676 72.50309463590384 M 161.91029299290676 72.50309463590384" stroke="white" stroke-width="1" /><path d="M 204.4755013311078 73.32086086273193 L 203.93232535810967 71.7628726363182 M 203.93232535810967 71.7628726363182 L 202.7465574094822 74.47705805301666 M 202.7465574094822 74.47705805301666 L 202.96486085520883 79.8828661441803 M 202.96486085520883 79.8828661441803 L 204.55955332385201 86.33352875709534 M 204.55955332385201 86.33352875709534 L 209.04370790587564 91.75456523895264 M 209.04370790587564 91.75456523895264 L 213.93551504479547 93.96291494369507 M 213.93551504479547 93.96291494369507 L 218.27730363474984 92.96131424605846 M 218.27730363474984 92.96131424605846 L 220.9236863838305 88.67576651275158 M 220.9236863838305 88.67576651275158 L 221.74575975404878 83.54329042136669 M 221.74575975404878 83.54329042136669 L 222.17767516391177 81.4833302050829 M 222.17767516391177 81.4833302050829 L 222.0053035789897 83.82973037660122 M 222.0053035789897 83.82973037660122 L 223.1600414985587 89.04260955750942 M 223.1600414985587 89.04260955750942 L 229.52446095885534 94.18863914906979 M 229.52446095885534 94.18863914906979 L 239.4438814395835 95.35863779485226 M 239.4438814395835 95.35863779485226 L 248.1956338161399 92.76745788753033 M 248.1956338161399 92.76745788753033 L 252.20139287652273 87.75628380477428 M 252.20139287652273 87.75628380477428 L 251.6204724484851 82.0518546551466 M 251.6204724484851 82.0518546551466 L 247.01164759935637 76.25485591590405 M 247.01164759935637 76.25485591590405 L 241.8860016042163 71.81446753442287 M 241.8860016042163 71.81446753442287 L 239.38677706064482 70.48985086381435 M 239.38677706064482 70.48985086381435 L 239.00872420759697 71.07349254190922 M 239.00872420759697 71.07349254190922 L 242.0800135681202 73.08071069419384 M 242.0800135681202 73.08071069419384" stroke="white" stroke-width="1" /><path d="M 260.1832840988209 83.36795143783092 L 259.7216903069784 81.93254835903645 M 259.7216903069784 81.93254835903645 L 258.6253087619116 81.3702117279172 M 258.6253087619116 81.3702117279172 L 258.26830893995066 83.95019102841616 M 258.26830893995066 83.95019102841616 L 259.8020516359975 89.98914171010256 M 259.8020516359975 89.98914171010256 L 262.65446946265 96.6004442051053 M 262.65446946265 96.6004442051053 L 266.79012075306673 99.67868972569704 M 266.79012075306673 99.67868972569704 L 273.62109080197115 100.99979925900698 M 273.62109080197115 100.99979925900698 L 281.39198318363924 97.10339326411486 M 281.39198318363924 97.10339326411486 L 284.3581528985669 91.62435669451952 M 284.3581528985669 91.62435669451952 L 280.8079825365712 84.85870976001024 M 280.8079825365712 84.85870976001024 L 272.05499097944994 78.18172056227922 M 272.05499097944994 78.18172056227922 L 263.39400276781817 75.6704406812787 M 263.39400276781817 75.6704406812787 L 257.261665316837 76.28865107893944 M 257.261665316837 76.28865107893944 L 255.5406546616723 77.38522633910179 M 255.5406546616723 77.38522633910179 L 259.9918046617677 78.38090509176254 M 259.9918046617677 78.38090509176254" stroke="white" stroke-width="1" /><path d="M 290.2762523317506 78.65810375660658 L 290.50263313816686 79.72601439803839 M 290.50263313816686 79.72601439803839 L 290.70960045100946 80.73074284940958 M 290.70960045100946 80.73074284940958 L 290.8696476394107 81.70753728598356 M 290.8696476394107 81.70753728598356 L 290.99633994752367 82.64063563197851 M 290.99633994752367 82.64063563197851 L 291.64361815208395 85.65750535577536 M 291.64361815208395 85.65750535577536 L 292.98915277475317 91.30541559308767 M 292.98915277475317 91.30541559308767 L 293.38611564839084 94.92741491645575 M 293.38611564839084 94.92741491645575 L 293.8742242311855 95.72332311421633 M 293.8742242311855 95.72332311421633 L 292.88844685310323 95.12973241508007 M 292.88844685310323 95.12973241508007 L 290.24511437171896 92.83363051712513 M 290.24511437171896 92.83363051712513 L 287.9615927791019 87.23940499126911 M 287.9615927791019 87.23940499126911 L 288.2329667290469 79.31894190609455 M 288.2329667290469 79.31894190609455 L 291.89714378917415 74.0607113391161 M 291.89714378917415 74.0607113391161 L 296.7376706680079 71.67775340378284 M 296.7376706680079 71.67775340378284 L 301.7565242131968 70.7318652421236 M 301.7565242131968 70.7318652421236 L 305.3775561531802 70.65599211491644 M 305.3775561531802 70.65599211491644 L 306.61451488042076 71.96859800256789 M 306.61451488042076 71.96859800256789" stroke="white" stroke-width="1" /><path d="M 314.2383554508706 70.80359236337245 L 313.134860016944 65.35372749902308 M 313.134860016944 65.35372749902308 L 312.46277137899597 63.0671323928982 M 312.46277137899597 63.0671323928982 L 312.4570369040157 62.925421791151166 M 312.4570369040157 62.925421791151166 L 313.1666947966005 65.54603387601674 M 313.1666947966005 65.54603387601674 L 314.68970865658775 71.91879500634968 M 314.68970865658775 71.91879500634968 L 316.31727636508003 80.99552442319691 M 316.31727636508003 80.99552442319691 L 318.98231238774315 89.39931740052998 M 318.98231238774315 89.39931740052998 L 321.4069542353536 94.72434689290822 M 321.4069542353536 94.72434689290822 L 321.7878517573263 97.33763028867543 M 321.7878517573263 97.33763028867543 L 321.76398965711996 98.26706786639988 M 321.76398965711996 98.26706786639988" stroke="white" stroke-width="1" /><path d="M 342.1439144312899 87.67653961665928 L 345.21652343864844 87.67278718703892 M 345.21652343864844 87.67278718703892 L 348.58466687794134 87.63621555583086 M 348.58466687794134 87.63621555583086 L 350.1369764208357 87.23146656469908 M 350.1369764208357 87.23146656469908 L 349.1250642686646 85.69164628104772 M 349.1250642686646 85.69164628104772 L 343.91228581960604 84.09974107460584 M 343.91228581960604 84.09974107460584 L 336.0170933156769 83.72837061004248 M 336.0170933156769 83.72837061004248 L 330.4748639016907 85.99983492807951 M 330.4748639016907 85.99983492807951 L 327.76463533933565 90.53959408716764 M 327.76463533933565 90.53959408716764 L 327.38504632558033 96.17586353735533 M 327.38504632558033 96.17586353735533 L 330.53010924901173 100.0293982954463 M 330.53010924901173 100.0293982954463 L 335.46335025872395 101.9669462175807 M 335.46335025872395 101.9669462175807 L 340.2366222366254 100.3311715455493 M 340.2366222366254 100.3311715455493 L 344.35810222472355 96.0740954609355 M 344.35810222472355 96.0740954609355 L 346.060294799463 89.26165291981306 M 346.060294799463 89.26165291981306 L 346.6030630766909 78.9805371494731 M 346.6030630766909 78.9805371494731 L 346.51711827325926 67.90523836330976 M 346.51711827325926 67.90523836330976 L 346.37680498133705 60.3630609245738 M 346.37680498133705 60.3630609245738 L 345.45795862744853 57.19665596203413 M 345.45795862744853 57.19665596203413 L 344.53980286787555 56.95395089627709 M 344.53980286787555 56.95395089627709 L 344.0871982760291 60.109730138792656 M 344.0871982760291 60.109730138792656 L 344.236443575428 66.8773213768145 M 344.236443575428 66.8773213768145 L 345.6767998002033 75.22186495305505 M 345.6767998002033 75.22186495305505 L 347.40274482588575 83.50879527570214 M 347.40274482588575 83.50879527570214 L 348.5941979400377 90.89630104543176 M 348.5941979400377 90.89630104543176 L 349.13620081912086 96.38353504182305 M 349.13620081912086 96.38353504182305 L 349.264779036821 98.6468640709063 M 349.264779036821 98.6468640709063 L 349.2755788932118 98.12704108597245 M 349.2755788932118 98.12704108597245 L 349.2841365410277 97.20963731349912 M 349.2841365410277 97.20963731349912 L 348.9829911140987 96.03641390742268 M 348.9829911140987 96.03641390742268 L 347.91875845177856 94.47375878633466 M 347.91875845177856 94.47375878633466" stroke="white" stroke-width="1" /></svg>