<?xml version="1.0" encoding="utf-8" ?>
<svg baseProfile="full" height="160" style="background-color: black;" version="1.1" width="750" xmlns="http://www.w3.org/2000/svg" xmlns:ev="http://www.w3.org/2001/xml-events" xmlns:xlink="http://www.w3.org/1999/xlink"><defs /><path d="M 50.45927111059427 61.69307470321655 L 50.0 62.904990166425705 M 50.0 62.904990166425705 L 50.1823534630239 64.39856052398682 M 50.1823534630239 64.39856052398682 L 50.856567453593016 67.74020731449127 M 50.856567453593016 67.74020731449127 L 52.58335096761584 73.81914377212524 M 52.58335096761584 73.81914377212524 L 55.20531369373202 79.7028237581253 M 55.20531369373202 79.7028237581253 L 56.595869194716215 85.61659455299377 M 56.595869194716215 85.61659455299377 L 57.180731762200594 89.53186482191086 M 57.180731762200594 89.53186482191086 L 57.376487385481596 91.37615501880646 M 57.376487385481596 91.37615501880646 L 57.39309145603329 91.18867518380284 M 57.39309145603329 91.18867518380284 L 57.39386252818804 88.56967838481069 M 57.39386252818804 88.56967838481069 L 57.96309716759424 84.97408600524068 M 57.96309716759424 84.97408600524068 L 59.75860215483408 81.17879481986165 M 59.75860215483408 81.17879481986165 L 63.03301967440348 78.52394910529256 M 63.03301967440348 78.52394910529256 L 66.78973324356775 78.33044733852148 M 66.78973324356775 78.33044733852148 L 69.70636911450129 81.35829534381628 M 69.70636911450129 81.35829534381628 L 71.42319999395113 85.70764478296041 M 71.42319999395113 85.70764478296041 L 72.59188756106596 89.62968345731497 M 72.59188756106596 89.62968345731497 L 73.37087444720964 91.38645272701979 M 73.37087444720964 91.38645272701979 L 73.93029320744972 92.14503522962332 M 73.93029320744972 92.14503522962332" stroke="white" stroke-width="1" /><path d="M 84.91643059758644 83.33954390138388 L 84.91348734147323 84.08457811921835 M 84.91348734147323 84.08457811921835 L 84.92049250715354 83.79212519153953 M 84.92049250715354 83.79212519153953 L 86.5189166735945 83.27043129131198 M 86.5189166735945 83.27043129131198 L 90.5486511062918 80.46118600293994 M 90.5486511062918 80.46118600293994 L 94.12674087994674 77.48922510072589 M 94.12674087994674 77.48922510072589 L 95.11301469021419 73.6180285923183 M 95.11301469021419 73.6180285923183 L 94.2183892052708 70.99385453388095 M 94.2183892052708 70.99385453388095 L 90.0973216813145 69.80166709050536 M 90.0973216813145 69.80166709050536 L 84.86309926920512 72.00233748182654 M 84.86309926920512 72.00233748182654 L 81.23831998520473 76.76452120766044 M 81.23831998520473 76.76452120766044 L 80.14680284970382 82.81018754467368 M 80.14680284970382 82.81018754467368 L 82.61210013144591 88.23689660057425 M 82.61210013144591 88.23689660057425 L 87.06947553866485 90.89214941486716 M 87.06947553866485 90.89214941486716 L 91.10590506308654 91.10014440491796 M 91.10590506308654 91.10014440491796 L 93.40409640186408 88.32635523751378 M 93.40409640186408 88.32635523751378" stroke="white" stroke-width="1" /><path d="M 103.30841306560615 66.21223332360387 L 102.53470953517535 63.26332392171025 M 102.53470953517535 63.26332392171025 L 102.0008708905516 61.9392323680222 M 102.0008708905516 61.9392323680222 L 101.9635552001273 61.976811052300036 M 101.9635552001273 61.976811052300036 L 102.0340041975578 63.74383351299912 M 102.0340041975578 63.74383351299912 L 102.76547917826974 68.3558719465509 M 102.76547917826974 68.3558719465509 L 103.6444223831495 75.90028515551239 M 103.6444223831495 75.90028515551239 L 105.20243743165338 83.78345361445099 M 105.20243743165338 83.78345361445099 L 106.68431186779344 88.96813622210175 M 106.68431186779344 88.96813622210175 L 107.02544400199258 91.54365888331085 M 107.02544400199258 91.54365888331085 L 106.93306001565361 92.434928775765 M 106.93306001565361 92.434928775765" stroke="white" stroke-width="1" /><path d="M 117.90113004586601 63.46972262952477 L 117.25265348992252 59.97036582324654 M 117.25265348992252 59.97036582324654 L 116.806405100142 58.12073072884232 M 116.806405100142 58.12073072884232 L 116.79954050421657 58.2482415298 M 116.79954050421657 58.2482415298 L 117.17524243831576 60.38953854236752 M 117.17524243831576 60.38953854236752 L 118.20650151312293 66.38521505985409 M 118.20650151312293 66.38521505985409 L 119.31733152210654 74.46061803493649 M 119.31733152210654 74.46061803493649 L 121.04642054378928 81.49595274124295 M 121.04642054378928 81.49595274124295 L 121.77232137262763 85.7106082001701 M 121.77232137262763 85.7106082001701 L 121.94555690824927 87.61638222727925 M 121.94555690824927 87.61638222727925" stroke="white" stroke-width="1" /><path d="M 135.87110570013465 70.72620688471943 L 134.97871039748134 71.31639665458351 M 134.97871039748134 71.31639665458351 L 133.91818402647914 72.05450704786927 M 133.91818402647914 72.05450704786927 L 133.1650283777708 74.59748825524002 M 133.1650283777708 74.59748825524002 L 133.72170938491763 77.90546080563217 M 133.72170938491763 77.90546080563217 L 136.3705812239641 81.09879514668137 M 136.3705812239641 81.09879514668137 L 139.57966072797717 82.24280385766178 M 139.57966072797717 82.24280385766178 L 143.54027046203555 80.71488885674626 M 143.54027046203555 80.71488885674626 L 146.1797980809206 76.26891701016575 M 146.1797980809206 76.26891701016575 L 145.81651894688548 71.49975298438221 M 145.81651894688548 71.49975298438221 L 143.44029037594737 67.4976202705875 M 143.44029037594737 67.4976202705875 L 140.61605243325175 64.3768003443256 M 140.61605243325175 64.3768003443256 L 138.46957458496036 63.46967226359993 M 138.46957458496036 63.46967226359993 L 137.88730396270694 65.27696824166924 M 137.88730396270694 65.27696824166924" stroke="white" stroke-width="1" /><path d="M 172.37794155567826 73.71313571929932 L 171.9533693635458 73.04421588778496 M 171.9533693635458 73.04421588778496 L 171.1797980809206 74.65913906693459 M 171.1797980809206 74.65913906693459 L 171.19162720009626 78.54600682854652 M 171.19162720009626 78.54600682854652 L 171.7836860226089 83.73691216111183 M 171.7836860226089 83.73691216111183 L 173.765445093959 89.26533117890358 M 173.765445093959 89.26533117890358 L 176.89070258602442 92.554000467062 M 176.89070258602442 92.554000467062 L 179.71310112938227 93.25343199074268 M 179.71310112938227 93.25343199074268 L 182.48314444288553 91.79750971496105 M 182.48314444288553 91.79750971496105 L 184.1480057345325 88.10644082725048 M 184.1480057345325 88.10644082725048 L 185.17586689755262 83.50400023162365 M 185.17586689755262 83.50400023162365 L 185.78879524335207 81.15012817084789 M 185.78879524335207 81.15012817084789 L 186.0492878252262 81.32937092334032 M 186.0492878252262 81.32937092334032 L 186.0375858280895 84.25957221537828 M 186.0375858280895 84.25957221537828 L 186.63599817045906 88.8001735880971 M 186.63599817045906 88.8001735880971 L 190.59549180754402 92.78131384402514 M 190.59549180754402 92.78131384402514 L 196.97493581064919 94.12216681987047 M 196.97493581064919 94.12216681987047 L 203.27704219111183 92.55892772227526 M 203.27704219111183 92.55892772227526 L 206.89906923063972 88.63676685839891 M 206.89906923063972 88.63676685839891 L 207.5541472990153 83.79953879863024 M 207.5541472990153 83.79953879863024 L 205.97379511185864 78.68757981806993 M 205.97379511185864 78.68757981806993 L 202.46089285203198 73.91126114875078 M 202.46089285203198 73.91126114875078 L 200.70266818591335 71.5740368142724 M 200.70266818591335 71.5740368142724 L 199.96793499180058 71.36579371988773 M 199.96793499180058 71.36579371988773 L 201.33632874079922 73.15120406448841 M 201.33632874079922 73.15120406448841" stroke="white" stroke-width="1" /><path d="M 216.65104126521328 81.04852862656116 L 216.5191078834323 80.37723571062088 M 216.5191078834323 80.37723571062088 L 216.10389641449729 80.18764931708574 M 216.10389641449729 80.18764931708574 L 216.09105474977696 82.08095852285624 M 216.09105474977696 82.08095852285624 L 216.88360288469994 86.463681794703 M 216.88360288469994 86.463681794703 L 218.22301894157135 91.60264823585749 M 218.22301894157135 91.60264823585749 L 219.97910678117478 94.37903139740229 M 219.97910678117478 94.37903139740229 L 223.37347596614563 95.35545635968447 M 223.37347596614563 95.35545635968447 L 227.85511523215973 92.2551353648305 M 227.85511523215973 92.2551353648305 L 228.8207720938226 87.66926873475313 M 228.8207720938226 87.66926873475313 L 225.85262231259549 82.00524676591158 M 225.85262231259549 82.00524676591158 L 219.94019381432736 77.66417372971773 M 219.94019381432736 77.66417372971773 L 215.02157918839657 77.01828699558973 M 215.02157918839657 77.01828699558973 L 213.40236983924115 77.59566489607096 M 213.40236983924115 77.59566489607096 L 216.28735534577572 78.2280920818448 M 216.28735534577572 78.2280920818448" stroke="white" stroke-width="1" /><path d="M 238.9656113806268 81.65358889847994 L 239.11129704407358 82.5256185606122 M 239.11129704407358 82.5256185606122 L 239.2484590663662 83.32002025097609 M 239.2484590663662 83.32002025097609 L 239.32433535075688 83.99972911924124 M 239.32433535075688 83.99972911924124 L 239.36885890747362 84.62714780122042 M 239.36885890747362 84.62714780122042 L 240.2314814665442 87.28266913443804 M 240.2314814665442 87.28266913443804 L 240.7193805390125 90.66860515624285 M 240.7193805390125 90.66860515624285 L 240.98916261653358 91.50070365518332 M 240.98916261653358 91.50070365518332 L 240.86672225232178 90.74681956321001 M 240.86672225232178 90.74681956321001 L 239.41431456441933 88.42161972075701 M 239.41431456441933 88.42161972075701 L 238.58841286237293 83.5704355314374 M 238.58841286237293 83.5704355314374 L 239.26007853086048 77.38681305199862 M 239.26007853086048 77.38681305199862 L 242.2238583975559 73.21710992604494 M 242.2238583975559 73.21710992604494 L 246.29005418355518 71.38258907943964 M 246.29005418355518 71.38258907943964 L 250.33606157834583 70.81550989300013 M 250.33606157834583 70.81550989300013 L 253.3289469891315 70.62779553234577 M 253.3289469891315 70.62779553234577 L 254.5611941182142 71.541513428092 M 254.5611941182142 71.541513428092" stroke="white" stroke-width="1" /><path d="M 263.5082816445356 66.95277743041515 L 262.8060429656034 63.33507500588894 M 262.8060429656034 63.33507500588894 L 262.3575389498001 62.19294212758541 M 262.3575389498001 62.19294212758541 L 262.362880392684 62.716034688055515 M 262.362880392684 62.716034688055515 L 262.68715469421295 66.05148021131754 M 262.68715469421295 66.05148021131754 L 263.59849093736557 71.90860453993082 M 263.59849093736557 71.90860453993082 L 264.31120386601833 79.67880848795176 M 264.31120386601833 79.67880848795176 L 265.94492411495594 87.23743800073862 M 265.94492411495594 87.23743800073862 L 267.301063447012 92.37434510141611 M 267.301063447012 92.37434510141611 L 267.54789412276295 94.396639354527 M 267.54789412276295 94.396639354527 L 267.5831538813509 94.88652750849724 M 267.5831538813509 94.88652750849724" stroke="white" stroke-width="1" /><path d="M 289.84985176495684 82.82892391085625 L 291.73457864693773 82.61366173624992 M 291.73457864693773 82.61366173624992 L 293.4352364020742 82.6865263003856 M 293.4352364020742 82.6865263003856 L 294.2918692158855 82.65464223222807 M 294.2918692158855 82.65464223222807 L 292.9950892554916 81.99188641505316 M 292.9950892554916 81.99188641505316 L 288.8158785926498 81.71641233609989 M 288.8158785926498 81.71641233609989 L 283.0665921794571 83.36028698133305 M 283.0665921794571 83.36028698133305 L 279.4666403161682 86.67677792953327 M 279.4666403161682 86.67677792953327 L 277.6366456972755 90.94142678426579 M 277.6366456972755 90.94142678426579 L 277.5349750465102 95.07860037731007 M 277.5349750465102 95.07860037731007 L 280.3439634388633 97.78538081096485 M 280.3439634388633 97.78538081096485 L 284.0220143741317 98.27847919659689 M 284.0220143741317 98.27847919659689 L 287.43731045185996 95.74389956193045 M 287.43731045185996 95.74389956193045 L 289.9595656341262 91.62833116250113 M 289.9595656341262 91.62833116250113 L 291.0032031780429 85.27238629059866 M 291.0032031780429 85.27238629059866 L 291.4169158136792 76.94749257760122 M 291.4169158136792 76.94749257760122 L 291.3634379722498 68.3641656418331 M 291.3634379722498 68.3641656418331 L 291.27297482009453 62.13047704892233 M 291.27297482009453 62.13047704892233 L 290.8929278191499 58.54760132031515 M 290.8929278191499 58.54760132031515 L 289.9341117080621 56.85254669981077 M 289.9341117080621 56.85254669981077 L 289.38227179016394 56.531502783764154 M 289.38227179016394 56.531502783764154 L 288.9827995609812 57.69586454378441 M 288.9827995609812 57.69586454378441 L 288.81033266450686 61.05855892645195 M 288.81033266450686 61.05855892645195 L 289.00462883080763 66.43077085958794 M 289.00462883080763 66.43077085958794 L 290.05879613127036 72.4767781351693 M 290.05879613127036 72.4767781351693 L 290.9831644829683 78.73246382223442 M 290.9831644829683 78.73246382223442 L 291.7104340579681 84.85960970865563 M 291.7104340579681 84.85960970865563 L 292.035138444262 90.16523133264855 M 292.035138444262 90.16523133264855 L 292.224707217174 93.5821310733445 M 292.224707217174 93.5821310733445 L 292.26070028751565 94.71195209072903 M 292.26070028751565 94.71195209072903 L 292.27772258942423 94.64462925447151 M 292.27772258942423 94.64462925447151 L 292.18355330427585 94.40106804249808 M 292.18355330427585 94.40106804249808 L 291.69027845164237 93.98307441500947 M 291.69027845164237 93.98307441500947" stroke="white" stroke-width="1" /></svg>